# xmcd
#
# Track frame offsets:
#	150
#	16688
#	29751
#	45535
#	63335
#	82195
#	99021
#	114211
#	131656
#	146700
#	160262
#	166249
#	185441
#
# Disc length: 2752 seconds
#
# Revision: 1
# Processed by: cddbd v1.5.2PL0 Copyright (c) Steve Scherf et al.
# Submitted via: audiograbber 1.83.01
#
DISCID=a30abe0d
DTITLE=Montell Jordan - Let It Rain
DYEAR=2008
DGENRE=R&B
TTITLE0=Let It Rain
TTITLE1=Left Alone
TTITLE2=Can't Live Without You
TTITLE3=Me And U
TTITLE4=Stay With Me
TTITLE5=I Like (The Way)
TTITLE6=I Need A Girl
TTITLE7=Not No More
TTITLE8=I Cried
TTITLE9=Your Love (Crazy 4 You)
TTITLE10=Comatose (Intro)
TTITLE11=Comatose
TTITLE12=How We Roll
EXTD=
EXTT0=
EXTT1=
EXTT2=
EXTT3=
EXTT4=
EXTT5=
EXTT6=
EXTT7=
EXTT8=
EXTT9=
EXTT10=
EXTT11=
EXTT12=
PLAYORDER=
